<svg id="visual" viewBox="0 0 1980 600" width="1980" height="600" xmlns="http://www.w3.org/2000/svg" xmlns:xlink="http://www.w3.org/1999/xlink" version="1.1"><path d="M0 548L47.2 512.2C94.3 476.3 188.7 404.7 283 405.3C377.3 406 471.7 479 566 499.8C660.3 520.7 754.7 489.3 848.8 466.8C943 444.3 1037 430.7 1131.2 410.2C1225.3 389.7 1319.7 362.3 1414 391.2C1508.3 420 1602.7 505 1697 511.2C1791.3 517.3 1885.7 444.7 1932.8 408.3L1980 372L1980 0L1932.8 0C1885.7 0 1791.3 0 1697 0C1602.7 0 1508.3 0 1414 0C1319.7 0 1225.3 0 1131.2 0C1037 0 943 0 848.8 0C754.7 0 660.3 0 566 0C471.7 0 377.3 0 283 0C188.7 0 94.3 0 47.2 0L0 0Z" fill="#f0ffee" stroke-linecap="round" stroke-linejoin="miter"></path></svg>